<?xml version="1.0" encoding="utf-8"?>
<!-- Generator: Adobe Illustrator 25.1.0, SVG Export Plug-In . SVG Version: 6.00 Build 0)  -->
<svg version="1.1" id="圖層_1" xmlns="http://www.w3.org/2000/svg" xmlns:xlink="http://www.w3.org/1999/xlink" x="0px" y="0px"
	 viewBox="0 0 361 90" style="enable-background:new 0 0 361 90;" xml:space="preserve">
<style type="text/css">
	.st0{fill:#231815;}
	.st1{fill:#00469B;}
</style>
<g>
	<g>
		<path class="st0" d="M65.14,34.36c-8.91,0-10.78,4.75-10.78,8.73v35.75c0,4.01,1.87,8.79,10.78,8.79c9.01,0,10.9-4.78,10.9-8.79
			V54.97H65.22v4.37h5.28v19.62c0,3.24-1.63,4.69-5.3,4.69c-3.66,0-5.29-1.44-5.29-4.67v-36c0-2.12,0.6-4.55,5.29-4.55
			c4.7,0,5.3,2.43,5.3,4.55v4.95h5.54v-4.82C76.05,39.11,74.16,34.36,65.14,34.36z"/>
		<path class="st0" d="M128.15,34.83h-10.66v52.35h5.55V59.8h4.2c2.52,0,4.33,0.38,5.4,1.14c0.7,0.5,1.05,1.56,1.05,3.17v23.07h5.42
			V63.86c0-2.84-1.09-5-3.17-6.37c2.09-1.24,3.17-3.31,3.17-6.11v-7.57c0-3.18-0.63-5.35-1.92-6.65
			C135.57,35.59,132.61,34.83,128.15,34.83z M123.04,39.01h4.2c3.27,0,4.49,0.38,4.96,0.62c0.37,0.18,1.49,0.72,1.49,3.49v8.07
			c0,2.8-1.11,3.38-1.48,3.58c-0.46,0.25-1.71,0.66-4.97,0.66h-4.2V39.01z"/>
		<path class="st0" d="M191.34,34.36c-8.91,0-10.78,4.75-10.78,8.73v35.75c0,4.01,1.87,8.79,10.78,8.79c9.01,0,10.9-4.78,10.9-8.79
			V54.97h-10.82v4.37h5.27v19.62c0,3.24-1.63,4.69-5.3,4.69c-3.66,0-5.29-1.44-5.29-4.67v-36c0-2.12,0.6-4.55,5.29-4.55
			c4.7,0,5.3,2.43,5.3,4.55v4.95h5.55v-4.82C202.25,39.11,200.35,34.36,191.34,34.36z"/>
		<polygon class="st0" points="212.2,87.17 233.7,87.17 233.7,83.12 217.75,83.12 217.75,59.18 233.7,59.18 233.7,55.19 
			217.75,55.19 217.75,38.94 233.7,38.94 233.7,34.83 212.2,34.83 		"/>
		<path class="st0" d="M94.76,34.77L83.41,87.23h5.3L92.66,70h8.72l3.76,17.23h5.56L99.35,34.77H94.76z M93.54,65.62l3.5-16.89
			l3.46,16.89H93.54z"/>
		<path class="st0" d="M159.28,34.77l-11.36,52.46h5.3L157.18,70h8.72l3.76,17.23h5.56l-11.35-52.46H159.28z M158.07,65.62
			l3.5-16.89l3.46,16.89H158.07z"/>
	</g>
	<g>
		<path class="st1" d="M253.13,34.83h-10.66v52.35h5.54V59.12h5.07c9.1,0,11-4.38,11-8.05v-7.26c0-3.18-0.63-5.35-1.92-6.65
			C260.55,35.59,257.59,34.83,253.13,34.83z M248.01,39.01h4.21c3.27,0,4.49,0.38,4.96,0.62c0.37,0.18,1.49,0.72,1.49,3.49v7.7
			c0,1.69-0.32,2.84-0.83,3.26c-0.63,0.42-2.11,0.91-5.62,0.91h-4.21V39.01z"/>
		<polygon class="st1" points="278.41,34.83 272.86,34.83 272.86,87.17 294.36,87.17 294.36,83.12 278.41,83.12 		"/>
		<polygon class="st1" points="351.13,34.83 343.02,54.2 335.14,34.83 329.04,34.83 340.11,60.45 340.11,87.17 345.66,87.17 
			345.66,60.83 357.04,34.83 		"/>
		<path class="st1" d="M314.67,34.77l-11.36,52.46h5.3L312.56,70h8.72l3.76,17.23h5.56l-11.35-52.46H314.67z M313.45,65.62
			l3.5-16.89l3.46,16.89H313.45z"/>
	</g>
	<path class="st0" d="M39.31,43.67l-8.09,2.92l-5.29-6.83L78.87,19.5l19.7,7.37V3.67H4.52v82.56h34.79V43.67z M21.21,78.52H9.99
		v-12.7h11.22V78.52z M21.21,60.74H9.99V48.04h11.22V60.74z M21.21,42.96H9.99v-12.7h11.22V42.96z M21.21,25.18H9.99v-12.7h11.22
		V25.18z"/>
</g>
</svg>
